HIERARCHY
ROOT mixamorig:Hips
{
	OFFSET -0.000008 104.274872 1.554316
	CHANNELS 6 Xposition Yposition Zposition Xrotation Yrotation Zrotation
	JOINT mixamorig:Spine
	{
		OFFSET -0.000005 10.181595 0.131519
		CHANNELS 6 Xposition Yposition Zposition Xrotation Yrotation Zrotation
		JOINT mixamorig:Spine1
		{
			OFFSET -0.000000 9.893959 -1.470707
			CHANNELS 6 Xposition Yposition Zposition Xrotation Yrotation Zrotation
			JOINT mixamorig:Spine2
			{
				OFFSET -0.000000 9.220757 -1.370641
				CHANNELS 6 Xposition Yposition Zposition Xrotation Yrotation Zrotation
				JOINT mixamorig:Neck
				{
					OFFSET 0.000001 16.740417 -2.049036
					CHANNELS 6 Xposition Yposition Zposition Xrotation Yrotation Zrotation
					JOINT mixamorig:Head
					{
						OFFSET 0.000000 9.617874 1.685006
						CHANNELS 6 Xposition Yposition Zposition Xrotation Yrotation Zrotation
						JOINT mixamorig:HeadTop_End
						{
							OFFSET 0.000002 22.037354 7.501101
							CHANNELS 6 Xposition Yposition Zposition Xrotation Yrotation Zrotation
							End Site
							{
								OFFSET 0.000168 2310.654297 -282.823242
							}
						}
					}
				}
				JOINT mixamorig:RightShoulder
				{
					OFFSET -4.569970 11.014908 -2.160885
					CHANNELS 6 Xposition Yposition Zposition Xrotation Yrotation Zrotation
					JOINT mixamorig:RightArm
					{
						OFFSET -10.592851 -0.524811 -2.232101
						CHANNELS 6 Xposition Yposition Zposition Xrotation Yrotation Zrotation
						JOINT mixamorig:RightForeArm
						{
							OFFSET -27.841511 0.000031 -0.000004
							CHANNELS 6 Xposition Yposition Zposition Xrotation Yrotation Zrotation
							JOINT mixamorig:RightHand
							{
								OFFSET -28.328831 -0.000015 0.000015
								CHANNELS 6 Xposition Yposition Zposition Xrotation Yrotation Zrotation
								JOINT mixamorig:RightHandThumb1
								{
									OFFSET -2.464806 -1.573990 2.681852
									CHANNELS 6 Xposition Yposition Zposition Xrotation Yrotation Zrotation
									JOINT mixamorig:RightHandThumb2
									{
										OFFSET -3.215179 -1.872803 1.924282
										CHANNELS 6 Xposition Yposition Zposition Xrotation Yrotation Zrotation
										JOINT mixamorig:RightHandThumb3
										{
											OFFSET -2.654831 -1.527969 1.512609
											CHANNELS 6 Xposition Yposition Zposition Xrotation Yrotation Zrotation
											JOINT mixamorig:RightHandThumb4
											{
												OFFSET -2.018814 -1.152008 1.108052
												CHANNELS 6 Xposition Yposition Zposition Xrotation Yrotation Zrotation
												End Site
												{
													OFFSET -188.809540 -114.533607 132.431396
												}
											}
										}
									}
								}
								JOINT mixamorig:RightHandIndex1
								{
									OFFSET -9.108284 -0.517868 2.259835
									CHANNELS 6 Xposition Yposition Zposition Xrotation Yrotation Zrotation
									JOINT mixamorig:RightHandIndex2
									{
										OFFSET -3.699989 0.000000 0.001215
										CHANNELS 6 Xposition Yposition Zposition Xrotation Yrotation Zrotation
										JOINT mixamorig:RightHandIndex3
										{
											OFFSET -2.850006 0.000031 -0.000522
											CHANNELS 6 Xposition Yposition Zposition Xrotation Yrotation Zrotation
											JOINT mixamorig:RightHandIndex4
											{
												OFFSET -2.772186 -0.000015 -0.000020
												CHANNELS 6 Xposition Yposition Zposition Xrotation Yrotation Zrotation
												End Site
												{
													OFFSET -277.218445 0.000000 -0.050231
												}
											}
										}
									}
								}
								JOINT mixamorig:RightHandMiddle1
								{
									OFFSET -9.532516 -0.000031 -0.000023
									CHANNELS 6 Xposition Yposition Zposition Xrotation Yrotation Zrotation
									JOINT mixamorig:RightHandMiddle2
									{
										OFFSET -3.700005 -0.000015 0.003713
										CHANNELS 6 Xposition Yposition Zposition Xrotation Yrotation Zrotation
										JOINT mixamorig:RightHandMiddle3
										{
											OFFSET -2.949974 0.000015 -0.002054
											CHANNELS 6 Xposition Yposition Zposition Xrotation Yrotation Zrotation
											JOINT mixamorig:RightHandMiddle4
											{
												OFFSET -2.946640 0.000000 -0.000156
												CHANNELS 6 Xposition Yposition Zposition Xrotation Yrotation Zrotation
												End Site
												{
													OFFSET -294.664337 0.000000 -0.113670
												}
											}
										}
									}
								}
								JOINT mixamorig:RightHandRing1
								{
									OFFSET -9.103600 -0.043076 -1.865134
									CHANNELS 6 Xposition Yposition Zposition Xrotation Yrotation Zrotation
									JOINT mixamorig:RightHandRing2
									{
										OFFSET -3.379288 0.000000 -0.001055
										CHANNELS 6 Xposition Yposition Zposition Xrotation Yrotation Zrotation
										JOINT mixamorig:RightHandRing3
										{
											OFFSET -2.889687 -0.000015 0.000379
											CHANNELS 6 Xposition Yposition Zposition Xrotation Yrotation Zrotation
											JOINT mixamorig:RightHandRing4
											{
												OFFSET -2.638809 -0.000015 0.000941
												CHANNELS 6 Xposition Yposition Zposition Xrotation Yrotation Zrotation
												End Site
												{
													OFFSET -263.880371 0.000000 0.516020
												}
											}
										}
									}
								}
								JOINT mixamorig:RightHandPinky1
								{
									OFFSET -8.076683 -0.486710 -3.806280
									CHANNELS 6 Xposition Yposition Zposition Xrotation Yrotation Zrotation
									JOINT mixamorig:RightHandPinky2
									{
										OFFSET -3.600014 -0.000015 -0.003747
										CHANNELS 6 Xposition Yposition Zposition Xrotation Yrotation Zrotation
										JOINT mixamorig:RightHandPinky3
										{
											OFFSET -2.099983 0.000000 -0.005739
											CHANNELS 6 Xposition Yposition Zposition Xrotation Yrotation Zrotation
											JOINT mixamorig:RightHandPinky4
											{
												OFFSET -2.115768 -0.000031 -0.003680
												CHANNELS 6 Xposition Yposition Zposition Xrotation Yrotation Zrotation
												End Site
												{
													OFFSET -211.577087 0.000000 -0.350686
												}
											}
										}
									}
								}
							}
						}
					}
				}
				JOINT mixamorig:LeftShoulder
				{
					OFFSET 4.570447 11.014725 -2.160855
					CHANNELS 6 Xposition Yposition Zposition Xrotation Yrotation Zrotation
					JOINT mixamorig:LeftArm
					{
						OFFSET 10.592371 -0.524597 -2.232119
						CHANNELS 6 Xposition Yposition Zposition Xrotation Yrotation Zrotation
						JOINT mixamorig:LeftForeArm
						{
							OFFSET 27.841532 -0.000031 0.000026
							CHANNELS 6 Xposition Yposition Zposition Xrotation Yrotation Zrotation
							JOINT mixamorig:LeftHand
							{
								OFFSET 28.328846 -0.000061 0.000022
								CHANNELS 6 Xposition Yposition Zposition Xrotation Yrotation Zrotation
								JOINT mixamorig:LeftHandThumb1
								{
									OFFSET 2.466141 -1.576172 2.681732
									CHANNELS 6 Xposition Yposition Zposition Xrotation Yrotation Zrotation
									JOINT mixamorig:LeftHandThumb2
									{
										OFFSET 3.217812 -1.872070 1.916482
										CHANNELS 6 Xposition Yposition Zposition Xrotation Yrotation Zrotation
										JOINT mixamorig:LeftHandThumb3
										{
											OFFSET 2.656029 -1.528778 1.514513
											CHANNELS 6 Xposition Yposition Zposition Xrotation Yrotation Zrotation
											JOINT mixamorig:LeftHandThumb4
											{
												OFFSET 2.020889 -1.154053 1.115139
												CHANNELS 6 Xposition Yposition Zposition Xrotation Yrotation Zrotation
												End Site
												{
													OFFSET 190.885437 -115.081749 130.048782
												}
											}
										}
									}
								}
								JOINT mixamorig:LeftHandIndex1
								{
									OFFSET 9.109314 -0.518021 2.259871
									CHANNELS 6 Xposition Yposition Zposition Xrotation Yrotation Zrotation
									JOINT mixamorig:LeftHandIndex2
									{
										OFFSET 3.699989 0.000000 -0.000322
										CHANNELS 6 Xposition Yposition Zposition Xrotation Yrotation Zrotation
										JOINT mixamorig:LeftHandIndex3
										{
											OFFSET 2.850006 0.000000 0.000352
											CHANNELS 6 Xposition Yposition Zposition Xrotation Yrotation Zrotation
											JOINT mixamorig:LeftHandIndex4
											{
												OFFSET 2.774864 -0.000031 -0.000027
												CHANNELS 6 Xposition Yposition Zposition Xrotation Yrotation Zrotation
												End Site
												{
													OFFSET 277.486267 0.000000 -0.009857
												}
											}
										}
									}
								}
								JOINT mixamorig:LeftHandMiddle1
								{
									OFFSET 9.533394 0.000061 0.000044
									CHANNELS 6 Xposition Yposition Zposition Xrotation Yrotation Zrotation
									JOINT mixamorig:LeftHandMiddle2
									{
										OFFSET 3.699989 -0.000015 -0.000231
										CHANNELS 6 Xposition Yposition Zposition Xrotation Yrotation Zrotation
										JOINT mixamorig:LeftHandMiddle3
										{
											OFFSET 2.949997 -0.000015 -0.000059
											CHANNELS 6 Xposition Yposition Zposition Xrotation Yrotation Zrotation
											JOINT mixamorig:LeftHandMiddle4
											{
												OFFSET 2.952896 0.000031 0.000063
												CHANNELS 6 Xposition Yposition Zposition Xrotation Yrotation Zrotation
												End Site
												{
													OFFSET 295.289337 0.000000 0.022810
												}
											}
										}
									}
								}
								JOINT mixamorig:LeftHandRing1
								{
									OFFSET 9.104523 -0.042999 -1.865074
									CHANNELS 6 Xposition Yposition Zposition Xrotation Yrotation Zrotation
									JOINT mixamorig:LeftHandRing2
									{
										OFFSET 3.150009 -0.000031 0.000043
										CHANNELS 6 Xposition Yposition Zposition Xrotation Yrotation Zrotation
										JOINT mixamorig:LeftHandRing3
										{
											OFFSET 2.949982 -0.000015 0.000040
											CHANNELS 6 Xposition Yposition Zposition Xrotation Yrotation Zrotation
											JOINT mixamorig:LeftHandRing4
											{
												OFFSET 2.644348 0.000000 0.000057
												CHANNELS 6 Xposition Yposition Zposition Xrotation Yrotation Zrotation
												End Site
												{
													OFFSET 264.434631 0.000000 0.012105
												}
											}
										}
									}
								}
								JOINT mixamorig:LeftHandPinky1
								{
									OFFSET 8.077789 -0.486847 -3.806259
									CHANNELS 6 Xposition Yposition Zposition Xrotation Yrotation Zrotation
									JOINT mixamorig:LeftHandPinky2
									{
										OFFSET 3.599953 0.000031 0.014727
										CHANNELS 6 Xposition Yposition Zposition Xrotation Yrotation Zrotation
										JOINT mixamorig:LeftHandPinky3
										{
											OFFSET 2.100021 0.000015 0.007705
											CHANNELS 6 Xposition Yposition Zposition Xrotation Yrotation Zrotation
											JOINT mixamorig:LeftHandPinky4
											{
												OFFSET 2.125504 0.000031 0.007517
												CHANNELS 6 Xposition Yposition Zposition Xrotation Yrotation Zrotation
												End Site
												{
													OFFSET 212.550781 0.000000 0.625752
												}
											}
										}
									}
								}
							}
						}
					}
				}
			}
		}
	}
	JOINT mixamorig:RightUpLeg
	{
		OFFSET -8.207787 -6.751648 -1.599560
		CHANNELS 6 Xposition Yposition Zposition Xrotation Yrotation Zrotation
		JOINT mixamorig:RightLeg
		{
			OFFSET -0.000002 -44.370117 0.345942
			CHANNELS 6 Xposition Yposition Zposition Xrotation Yrotation Zrotation
			JOINT mixamorig:RightFoot
			{
				OFFSET 0.000003 -44.423679 -3.043532
				CHANNELS 6 Xposition Yposition Zposition Xrotation Yrotation Zrotation
				JOINT mixamorig:RightToeBase
				{
					OFFSET -0.000002 -8.728671 10.710558
					CHANNELS 6 Xposition Yposition Zposition Xrotation Yrotation Zrotation
					JOINT mixamorig:RightToe_End
					{
						OFFSET -0.000001 -0.000679 9.278119
						CHANNELS 6 Xposition Yposition Zposition Xrotation Yrotation Zrotation
						End Site
						{
							OFFSET 0.000000 -0.067690 927.812134
						}
					}
				}
			}
		}
	}
	JOINT mixamorig:LeftUpLeg
	{
		OFFSET 8.207793 -6.751686 -1.599556
		CHANNELS 6 Xposition Yposition Zposition Xrotation Yrotation Zrotation
		JOINT mixamorig:LeftLeg
		{
			OFFSET -0.000004 -44.370014 0.346954
			CHANNELS 6 Xposition Yposition Zposition Xrotation Yrotation Zrotation
			JOINT mixamorig:LeftFoot
			{
				OFFSET -0.000001 -44.423672 -3.044401
				CHANNELS 6 Xposition Yposition Zposition Xrotation Yrotation Zrotation
				JOINT mixamorig:LeftToeBase
				{
					OFFSET -0.000002 -8.728669 10.710558
					CHANNELS 6 Xposition Yposition Zposition Xrotation Yrotation Zrotation
					JOINT mixamorig:LeftToe_End
					{
						OFFSET -0.000003 -0.000679 9.278133
						CHANNELS 6 Xposition Yposition Zposition Xrotation Yrotation Zrotation
						End Site
						{
							OFFSET 0.000000 -0.068021 927.813477
						}
					}
				}
			}
		}
	}
}
MOTION
Frames: 3
Frame Time: 0.033333
0.000006 104.270477 1.554256 0.000010 0.000003 -0.000113 -0.000005 10.181587 0.131522 0.000001 -0.000003 0.000084 -0.000000 9.893967 -1.470711 0.000001 0.000000 -0.000000 -0.000000 9.220802 -1.370642 0.000000 -0.000000 -0.000000 0.000001 16.740433 -2.049030 0.000000 -0.000000 -0.000000 0.000000 9.617859 1.685014 0.000000 0.000000 0.000000 0.000002 22.037384 7.501101 0.000000 -0.000000 0.000000 -4.569968 11.014880 -2.160881 0.000008 0.000001 -0.000038 -10.592871 -0.524684 -2.232022 70.960994 8.788439 -6.270275 -27.841530 0.000018 0.000516 -55.844327 119.151858 84.128663 -28.328842 0.000006 0.000020 -0.000321 -0.000046 0.000007 -2.464401 -1.573800 2.682343 -43.980978 -161.338344 -0.420319 -3.215260 -1.872556 1.924631 151.356418 33.085074 17.361781 -2.654957 -1.527894 1.513081 149.337373 26.797747 -34.148805 -2.018831 -1.152015 1.108067 -0.000001 -0.000003 0.000004 -9.108357 -0.517560 2.260129 102.548139 14.771701 -18.421982 -3.700067 0.000310 0.001532 99.598508 13.827817 -16.303064 -2.850087 0.000359 -0.000241 100.137103 11.348231 -13.537234 -2.772175 -0.000016 -0.000021 -0.000001 0.000001 0.000002 -9.532578 0.000284 0.000257 100.025798 13.610158 -16.360564 -3.700084 0.000324 0.004018 99.747229 13.415074 -15.772937 -2.950055 0.000336 -0.001763 101.700199 11.649516 -14.275585 -2.946616 -0.000001 -0.000153 -0.000004 0.000000 -0.000000 -9.103678 -0.042740 -1.864845 100.898314 14.914743 -17.960467 -3.379346 0.000317 -0.000780 101.085468 10.229002 -12.433202 -2.889749 0.000352 0.000684 104.587791 7.057068 -9.180079 -2.638829 -0.000000 0.000943 0.000001 0.000001 -0.000001 -8.076723 -0.486385 -3.805979 97.644063 16.704686 -18.884496 -3.600020 0.000310 -0.003468 100.351844 6.922682 -7.880337 -2.100005 0.000335 -0.005449 100.700532 3.250874 -3.666690 -2.115756 -0.000040 -0.003678 -0.000002 0.000001 -0.000002 4.570446 11.014691 -2.160851 -0.000018 0.000010 -0.000021 10.592362 -0.524523 -2.232300 70.466590 5.355397 -3.783789 27.841841 0.000124 -0.000230 105.712805 -64.788197 79.899280 28.328817 -0.000026 0.000021 0.000020 -0.000089 -0.000000 2.465981 -1.576143 2.681900 -39.541700 156.206945 -7.793391 3.217787 -1.871707 1.916372 155.438645 -32.613259 -9.132024 2.656087 -1.528652 1.514458 141.530413 -27.533993 43.616331 2.020891 -1.154074 1.115155 -0.000000 0.000002 0.000002 9.109387 -0.517827 2.259730 92.961866 -14.525410 15.274690 3.700052 0.000176 -0.000470 91.286728 -13.915730 14.246048 2.850048 0.000212 0.000213 89.857593 -12.114508 12.083359 2.774896 -0.000026 -0.000022 0.000001 -0.000001 -0.000001 9.533467 0.000266 -0.000089 95.110050 -12.905320 14.089893 3.700069 0.000195 -0.000366 94.845202 -12.017365 13.067411 2.950083 0.000183 -0.000198 94.837812 -15.736071 17.107768 2.952883 -0.000012 0.000072 0.000005 -0.000001 0.000002 9.104580 -0.042811 -1.865226 94.938291 -12.290496 13.390635 3.150070 0.000233 -0.000104 98.551734 -11.491149 13.334842 2.950040 0.000207 -0.000077 101.811578 -13.596123 16.695550 2.644327 0.000045 0.000053 -0.000002 -0.000002 -0.000000 8.077839 -0.486691 -3.806428 84.912618 -15.346291 14.586402 3.600015 0.000219 0.014561 86.666153 -11.931694 11.734988 2.100051 0.000220 0.007550 90.530196 -11.586628 12.177511 2.125500 0.000001 0.007515 0.000002 0.000001 0.000001 -8.207786 -6.751667 -1.599560 -0.077001 -0.000003 0.000080 -0.000002 -44.370110 0.345938 0.153719 -0.000000 -0.000000 0.000000 -44.423679 -3.043532 -0.076700 0.000000 -0.000002 -0.000006 -8.728667 10.710559 -0.000009 -0.000000 -0.000000 -0.000001 -0.000679 9.278123 0.000000 -0.000000 -0.000000 8.207792 -6.751710 -1.599556 -0.074518 -0.000003 0.000081 -0.000002 -44.370014 0.346960 0.148822 0.000002 0.000000 -0.000001 -44.423664 -3.044403 -0.074314 0.000000 -0.000002 -0.000004 -8.728671 10.710558 0.000007 -0.000000 -0.000000 0.000000 -0.000680 9.278137 -0.000000 0.000000 -0.000001 
0.000006 104.270477 1.554256 0.000010 0.000003 -0.000113 -0.000005 10.181587 0.131522 0.000001 -0.000003 0.000084 -0.000000 9.893967 -1.470711 0.000001 0.000000 -0.000000 -0.000000 9.220802 -1.370642 0.000000 -0.000000 -0.000000 0.000001 16.740433 -2.049030 0.000000 -0.000000 -0.000000 0.000000 9.617859 1.685014 0.000000 0.000000 0.000000 0.000002 22.037384 7.501101 0.000000 -0.000000 0.000000 -4.569968 11.014880 -2.160881 0.000008 0.000001 -0.000038 -10.592865 -0.524674 -2.232031 70.365333 6.444093 -4.545307 -27.841532 0.000015 0.000546 -55.593372 120.383068 85.238555 -28.328814 0.000019 0.000028 -0.000317 -0.000044 0.000007 -2.464417 -1.573779 2.682324 -47.148478 -161.553754 -8.231052 -3.215272 -1.872565 1.924639 150.208564 32.888003 17.870271 -2.654959 -1.527865 1.513068 147.511759 27.344171 -31.835785 -2.018826 -1.151995 1.108067 -0.000003 0.000002 0.000002 -9.108401 -0.517546 2.260139 104.949518 15.535749 -20.202960 -3.700072 0.000312 0.001526 100.869770 13.740641 -16.564845 -2.850086 0.000364 -0.000227 100.295229 10.685448 -12.784058 -2.772181 -0.000000 -0.000021 -0.000002 0.000002 -0.000002 -9.532614 0.000286 0.000283 101.646916 16.425927 -20.262296 -3.700080 0.000317 0.004010 101.413570 13.491587 -16.333019 -2.950067 0.000325 -0.001747 104.015660 11.483690 -14.662244 -2.946633 0.000014 -0.000156 0.000001 0.000002 0.000000 -9.103719 -0.042739 -1.864813 100.917500 17.865987 -21.506336 -3.379317 0.000336 -0.000771 101.481434 10.598543 -12.970816 -2.889750 0.000364 0.000669 107.268196 7.018418 -9.583422 -2.638828 -0.000026 0.000945 0.000001 -0.000000 -0.000001 -8.076775 -0.486395 -3.805984 96.671096 19.407984 -21.584369 -3.600020 0.000292 -0.003476 99.067891 8.637695 -9.701611 -2.100000 0.000322 -0.005425 102.346191 3.960671 -4.654226 -2.115778 -0.000041 -0.003681 -0.000001 0.000002 -0.000008 4.570446 11.014691 -2.160851 -0.000018 0.000010 -0.000021 10.592356 -0.524550 -2.232259 71.314504 16.849720 -12.131004 27.841850 0.000112 -0.000214 104.519598 -63.084843 76.831746 28.328840 -0.000027 0.000019 0.000020 -0.000089 -0.000000 2.466187 -1.576143 2.681878 -7.307455 158.398398 -70.343661 3.217843 -1.871780 1.916381 165.687439 -26.961823 20.280164 2.656109 -1.528676 1.514476 140.997972 -27.108157 54.497707 2.020894 -1.154081 1.115146 0.000008 0.000001 0.000004 9.109388 -0.517839 2.259736 95.949323 -17.611438 19.492928 3.700035 0.000197 -0.000466 94.429066 -10.783072 11.662633 2.850047 0.000218 0.000199 93.136405 -7.397735 7.811645 2.774876 -0.000014 -0.000021 -0.000000 0.000001 0.000001 9.533472 0.000235 -0.000066 97.523565 -17.322905 19.706040 3.700058 0.000223 -0.000379 97.470392 -9.205386 10.481599 2.950049 0.000216 -0.000213 97.455844 -8.516298 9.701304 2.952869 -0.000016 0.000069 -0.000001 -0.000001 -0.000001 9.104593 -0.042824 -1.865209 97.304719 -16.565437 18.788759 3.150053 0.000242 -0.000094 101.211266 -10.809973 13.146318 2.950012 0.000236 -0.000095 101.900111 -9.063431 11.162499 2.644319 0.000029 0.000054 -0.000003 -0.000002 -0.000000 8.077851 -0.486697 -3.806417 89.876765 -19.006589 19.564257 3.600034 0.000189 0.014588 91.113658 -16.585376 17.442094 2.100068 0.000197 0.007553 92.278636 -11.869695 12.847997 2.125520 0.000002 0.007523 0.000002 0.000001 -0.000000 -8.207786 -6.751667 -1.599560 -0.077001 -0.000003 0.000080 -0.000002 -44.370110 0.345938 0.153719 -0.000000 -0.000000 0.000000 -44.423679 -3.043532 -0.076700 0.000000 -0.000002 -0.000006 -8.728667 10.710559 -0.000009 -0.000000 -0.000000 -0.000001 -0.000679 9.278123 0.000000 -0.000000 -0.000000 8.207792 -6.751710 -1.599556 -0.074518 -0.000003 0.000081 -0.000002 -44.370014 0.346960 0.148822 0.000002 0.000000 -0.000001 -44.423664 -3.044403 -0.074314 0.000000 -0.000002 -0.000004 -8.728671 10.710558 0.000007 -0.000000 -0.000000 0.000000 -0.000680 9.278137 -0.000000 0.000000 -0.000001 
0.000006 104.270477 1.554256 0.000010 0.000003 -0.000113 -0.000005 10.181587 0.131522 0.000001 -0.000003 0.000084 -0.000000 9.893967 -1.470711 0.000001 0.000000 -0.000000 -0.000000 9.220802 -1.370642 0.000000 -0.000000 -0.000000 0.000001 16.740433 -2.049030 0.000000 -0.000000 -0.000000 0.000000 9.617859 1.685014 0.000000 0.000000 0.000000 0.000002 22.037384 7.501101 0.000000 -0.000000 0.000000 -4.569968 11.014880 -2.160881 0.000008 0.000001 -0.000038 -10.592884 -0.524725 -2.231974 69.462744 18.272195 -12.723013 -27.841522 0.000015 0.000565 -53.112398 114.775551 75.990936 -28.328815 0.000021 0.000025 -0.000323 -0.000045 0.000008 -2.464400 -1.573896 2.682365 -32.457394 -151.810558 21.056792 -3.215269 -1.872547 1.924619 151.600365 32.923677 15.846611 -2.654978 -1.527894 1.513064 147.175796 27.760025 -27.973783 -2.018834 -1.152016 1.108062 -0.000006 -0.000001 0.000002 -9.108368 -0.517565 2.260155 109.758982 15.226063 -21.585122 -3.700077 0.000314 0.001561 107.742191 12.022318 -16.384978 -2.850082 0.000378 -0.000232 107.199484 8.783750 -11.893142 -2.772168 -0.000001 -0.000026 0.000001 -0.000000 -0.000001 -9.532581 0.000265 0.000282 104.371506 14.402490 -18.673954 -3.700058 0.000328 0.004012 104.587306 11.396505 -14.588123 -2.950049 0.000337 -0.001746 105.890485 10.000652 -13.210497 -2.946642 0.000014 -0.000152 -0.000000 -0.000000 -0.000002 -9.103683 -0.042751 -1.864822 104.188122 16.293730 -20.778677 -3.379336 0.000317 -0.000764 105.891640 10.581168 -14.007440 -2.889760 0.000344 0.000688 110.355182 7.081588 -10.232601 -2.638829 -0.000015 0.000940 0.000000 -0.000000 -0.000001 -8.076738 -0.486386 -3.805967 99.894037 17.312947 -20.351305 -3.600043 0.000306 -0.003456 103.977186 8.710568 -10.675196 -2.100019 0.000325 -0.005427 107.471121 4.425350 -5.735418 -2.115791 -0.000041 -0.003674 -0.000000 0.000000 -0.000003 4.570446 11.014691 -2.160851 -0.000018 0.000010 -0.000021 10.592356 -0.524540 -2.232274 70.876204 13.104002 -9.345677 27.841843 0.000090 -0.000214 103.308913 -66.471585 79.274577 28.328831 -0.000044 0.000012 0.000021 -0.000089 -0.000000 2.466226 -1.576074 2.681842 8.914987 163.455374 -96.858277 3.217861 -1.871789 1.916406 167.666104 -23.508111 31.997507 2.656106 -1.528651 1.514488 143.559539 -26.387205 52.306019 2.020902 -1.154073 1.115161 0.000004 0.000003 0.000004 9.109401 -0.517830 2.259752 99.708276 -18.909034 22.322235 3.700045 0.000223 -0.000463 97.973572 -10.281658 11.830825 2.850050 0.000239 0.000199 95.680616 -6.982128 7.707676 2.774899 -0.000043 -0.000022 0.000003 0.000000 -0.000002 9.533473 0.000245 -0.000064 100.318677 -17.763278 21.205082 3.700051 0.000224 -0.000362 101.196349 -8.072244 9.815767 2.950049 0.000235 -0.000212 101.358327 -7.625932 9.306799 2.952863 -0.000026 0.000055 0.000003 0.000001 -0.000002 9.104595 -0.042810 -1.865198 100.286807 -16.908961 20.193104 3.150044 0.000244 -0.000095 103.892170 -10.916921 13.921716 2.950033 0.000216 -0.000069 104.311885 -9.094529 11.692101 2.644325 0.000046 0.000062 0.000002 -0.000003 0.000001 8.077858 -0.486697 -3.806401 92.047919 -19.546722 20.866105 3.600040 0.000208 0.014576 91.627309 -17.727541 18.775901 2.100053 0.000203 0.007560 91.587619 -12.810314 13.666666 2.125513 -0.000011 0.007511 0.000003 -0.000003 -0.000000 -8.207786 -6.751667 -1.599560 -0.077001 -0.000003 0.000080 -0.000002 -44.370110 0.345938 0.153719 -0.000000 -0.000000 0.000000 -44.423679 -3.043532 -0.076700 0.000000 -0.000002 -0.000006 -8.728667 10.710559 -0.000009 -0.000000 -0.000000 -0.000001 -0.000679 9.278123 0.000000 -0.000000 -0.000000 8.207792 -6.751710 -1.599556 -0.074518 -0.000003 0.000081 -0.000002 -44.370014 0.346960 0.148822 0.000002 0.000000 -0.000001 -44.423664 -3.044403 -0.074314 0.000000 -0.000002 -0.000004 -8.728671 10.710558 0.000007 -0.000000 -0.000000 0.000000 -0.000680 9.278137 -0.000000 0.000000 -0.000001 
